<svg width="171" height="171" viewBox="0 0 171 171" fill="none" xmlns="http://www.w3.org/2000/svg">
<path d="M171 85.5C171 132.72 132.72 171 85.5 171C38.2797 171 0 132.72 0 85.5C0 38.2797 38.2797 0 85.5 0C132.72 0 171 38.2797 171 85.5Z" fill="#1F242D"/>
<path d="M41.4375 75.3828H22.5234V82.4375C24.2266 80.5781 25.8047 79.3828 27.2578 78.8516C28.0703 78.5547 28.9844 78.4062 30 78.4062C33.8125 78.4062 36.6641 80.2812 38.5547 84.0312C39.3828 85.6719 39.7969 87.2891 39.7969 88.8828C39.7969 91.7891 38.6016 94.4141 36.2109 96.7578C35.4141 97.5391 34.8203 98.0781 34.4297 98.375L30.5859 96.0781C31.5547 95.0625 32.6562 93.8125 33.8906 92.3281C35.2812 90.6562 35.9844 88.5469 36 86C36.0156 84.4844 35.6719 83.2188 34.9688 82.2031C34.1719 81.0156 33.0469 80.4375 31.5938 80.4688C30.25 80.5 28.8125 81.0078 27.2812 81.9922C25.9062 82.8672 24.7656 83.9141 23.8594 85.1328C22.875 86.4453 22.3828 87.7109 22.3828 88.9297V98.2344L18 95.8906V75.3828H15.4219V72.5703H18C18 67.9766 16.8047 64.0547 14.4141 60.8047C12.9766 58.8516 11.6484 57.4766 10.4297 56.6797L15.1641 56.6328C17.7891 58.0703 19.875 61.1719 21.4219 65.9375C22.1562 68.2031 22.5234 70.4141 22.5234 72.5703H41.4375V75.3828Z" fill="#00EEFF"/>
<path d="M64.1016 75.3828H48.4922V79.1328C48.5547 79.1328 48.6172 79.1641 48.6797 79.2266C48.7422 79.2891 48.7969 79.3203 48.8438 79.3203C48.7188 79.3203 48.6484 79.3125 48.6328 79.2969C48.6328 79.2188 49.7969 78.9688 52.125 78.5469C52.9844 78.3906 53.8359 78.3125 54.6797 78.3125C58.1953 78.3125 60.4531 79.2969 61.4531 81.2656C62.125 82.5781 62.4609 85.2266 62.4609 89.2109V98.2344C62.1328 98.1094 60.8906 97.6016 58.7344 96.7109C58.7344 96.2109 58.6328 95.8906 58.4297 95.75C57.6016 96.2344 56.9219 96.6016 56.3906 96.8516C54.7031 97.6484 52.7422 98.0469 50.5078 98.0469C47.4297 98.0469 45.0547 97.0781 43.3828 95.1406C42.5703 94.2031 42.1641 93.1562 42.1641 92C42.1641 90.7031 42.8047 89.4141 44.0859 88.1328C46.5703 85.6484 49.6562 84.4062 53.3438 84.4062C55.5781 84.4062 57.375 84.9219 58.7344 85.9531V83.7969C58.0469 82.9219 57.375 82.3359 56.7188 82.0391C56.0781 81.7422 55.1953 81.6094 54.0703 81.6406C51.5547 81.6875 49.25 82.1484 47.1562 83.0234C46.2188 83.4141 45.3047 83.7656 44.4141 84.0781V82.3438C44.6172 82.1719 44.9141 81.9141 45.3047 81.5703C45.3672 81.4922 45.4062 81.4453 45.4219 81.4297V75.3828H40.6172V72.5703H64.1016V75.3828ZM58.7344 90.2188C58.7344 89.5312 57.9141 88.9141 56.2734 88.3672C54.9141 87.9141 53.7812 87.6875 52.875 87.6875C49.5781 87.6875 46.9375 88.875 44.9531 91.25C44.1562 92.2031 43.7578 92.9844 43.7578 93.5938C44.0859 94.7344 45.375 95.3047 47.625 95.3047C50.5312 95.3047 53.1875 94.5781 55.5938 93.125C57.6875 91.8594 58.7344 90.8906 58.7344 90.2188Z" fill="#00EEFF"/>
<path d="M87.4922 75.3828H63.7969V72.5703H87.4922V75.3828ZM85.5469 83.7969C85.5469 84.7188 84.9922 85.7578 83.8828 86.9141C82.9453 87.8984 81.9609 88.6328 80.9297 89.1172L77.4141 85.1328C78.4766 85.0391 79.4844 84.6484 80.4375 83.9609C81.5312 83.1797 82.0781 82.2891 82.0781 81.2891C82.0781 80.7578 81.7344 80.3047 81.0469 79.9297C80.4531 79.5859 79.8672 79.4141 79.2891 79.4141C78.0859 79.4141 76.7969 79.9922 75.4219 81.1484C72.625 83.4922 71.2266 86.0859 71.2266 88.9297V98.8672L66.7266 96.5234V79.1797H71.2734V80.9609C71.9453 80.2891 73.3359 79.5859 75.4453 78.8516C76.4766 78.4922 77.5391 78.3125 78.6328 78.3125C80.8984 78.3125 82.8203 79.1797 84.3984 80.9141C85.1641 81.7578 85.5469 82.7188 85.5469 83.7969Z" fill="#00EEFF"/>
<path d="M110.906 75.3828H108.352V84.2656C107.43 83.7188 106.102 83.25 104.367 82.8594C102.742 82.4844 101.336 82.2969 100.148 82.2969C97.2891 82.2969 94.8906 82.8047 92.9531 83.8203C91.8594 84.3984 91.3125 85.1562 91.3125 86.0938C91.3125 87.3438 91.9688 87.9688 93.2812 87.9688C94.0781 87.9688 95.1172 87.7344 96.3984 87.2656C97.2266 86.9688 98.2891 86.5938 99.5859 86.1406C100.133 85.9531 101.102 85.8594 102.492 85.8594C105.195 85.8594 107.211 86.6953 108.539 88.3672C109.18 89.1641 109.5 90.1016 109.5 91.1797C109.5 93.6641 107.938 95.6172 104.812 97.0391C103.516 97.6328 102.281 97.9688 101.109 98.0469C102.234 99.1719 103.305 99.7344 104.32 99.7344C104.648 99.7344 105 99.6875 105.375 99.5938L107.742 103.461C107.258 103.883 106.266 104.094 104.766 104.094C103.547 104.094 102.516 103.68 101.672 102.852C101.219 102.398 100.578 101.453 99.75 100.016C99.0469 98.7812 98.4609 98.1562 97.9922 98.1406C95.1016 98.0625 92.875 97.5391 91.3125 96.5703C90.3281 95.9609 89.8359 95.125 89.8359 94.0625C89.8359 92.75 90.6172 92.0938 92.1797 92.0938C92.7578 92.0938 93.9609 92.5469 95.7891 93.4531C97.6328 94.3438 99.1484 94.7891 100.336 94.7891C102.711 94.7891 104.938 94.2266 107.016 93.1016C108.031 92.5547 108.539 91.8828 108.539 91.0859C108.539 89.8984 107.602 89.3047 105.727 89.3047C105.148 89.3047 103.281 89.7266 100.125 90.5703C98.2656 91.0703 97.125 91.3203 96.7031 91.3203C94.2188 91.3203 92.1719 90.1484 90.5625 87.8047C89.7812 86.6797 89.3906 85.4688 89.3906 84.1719C89.375 81.5312 91.1797 79.75 94.8047 78.8281C96.2891 78.4531 97.6875 78.2656 99 78.2656C100.5 78.2656 102.625 78.6328 105.375 79.3672V75.3828H86.7188V72.5703H110.906V75.3828Z" fill="#00EEFF"/>
<path d="M136.406 75.3828H117.492V82.4375C119.195 80.5781 120.773 79.3828 122.227 78.8516C123.039 78.5547 123.953 78.4062 124.969 78.4062C128.781 78.4062 131.633 80.2812 133.523 84.0312C134.352 85.6719 134.766 87.2891 134.766 88.8828C134.766 91.7891 133.57 94.4141 131.18 96.7578C130.383 97.5391 129.789 98.0781 129.398 98.375L125.555 96.0781C126.523 95.0625 127.625 93.8125 128.859 92.3281C130.25 90.6562 130.953 88.5469 130.969 86C130.984 84.4844 130.641 83.2188 129.938 82.2031C129.141 81.0156 128.016 80.4375 126.562 80.4688C125.219 80.5 123.781 81.0078 122.25 81.9922C120.875 82.8672 119.734 83.9141 118.828 85.1328C117.844 86.4453 117.352 87.7109 117.352 88.9297V98.2344L112.969 95.8906V75.3828H110.391V72.5703H112.969C112.969 67.9766 111.773 64.0547 109.383 60.8047C107.945 58.8516 106.617 57.4766 105.398 56.6797L110.133 56.6328C112.758 58.0703 114.844 61.1719 116.391 65.9375C117.125 68.2031 117.492 70.4141 117.492 72.5703H136.406V75.3828Z" fill="#00EEFF"/>
<path d="M144.094 70.1094C144.031 70.1719 143.852 70.2031 143.555 70.2031C143.305 70.2031 143.086 70.1719 142.898 70.1094L141.375 66.9922C140.75 66.0078 139.898 65.3438 138.82 65C137.758 64.6406 137.102 64.25 136.852 63.8281C136.617 63.1094 136.164 62.0078 135.492 60.5234V59.9844H136.406C137.609 60.3594 138.586 60.7109 139.336 61.0391C140.57 61.5859 141.398 62.2188 141.82 62.9375C142.055 63.3281 142.414 64.3281 142.898 65.9375C143.352 67.4531 143.734 68.5078 144.047 69.1016C144.078 69.3828 144.094 69.7188 144.094 70.1094ZM145.477 75.3828H135.938V72.5703H145.477V75.3828ZM142.805 98.5391L138.867 96.3594V78.2656H142.805V98.5391Z" fill="#00EEFF"/>
<path d="M155.672 75.3828H153.188V72.5703H155.672V75.3828ZM147.656 75.3828H144.984V72.5703H147.656V75.3828ZM152.414 69.7344V98.5859C152.258 98.5391 152.055 98.4531 151.805 98.3281L150.586 97.6953C149.195 96.9766 148.461 96.6172 148.383 96.6172V69.7812C148.383 68.1406 148.062 66.3984 147.422 64.5547C146.531 61.9766 145.148 59.6328 143.273 57.5234L141.797 55.8594H146.789C149.383 58.4531 151.086 61.6328 151.898 65.3984C152.242 66.9922 152.414 68.4375 152.414 69.7344Z" fill="#00EEFF"/>
</svg>
